<?xml version="1.0" encoding="UTF-8" standalone="no"?>
<svg
   xmlns:dc="http://purl.org/dc/elements/1.1/"
   xmlns:cc="http://creativecommons.org/ns#"
   xmlns:rdf="http://www.w3.org/1999/02/22-rdf-syntax-ns#"
   xmlns:svg="http://www.w3.org/2000/svg"
   xmlns="http://www.w3.org/2000/svg"
   xmlns:sodipodi="http://sodipodi.sourceforge.net/DTD/sodipodi-0.dtd"
   xmlns:inkscape="http://www.inkscape.org/namespaces/inkscape"
   width="20px"
   height="20px"
   viewBox="0 0 20 20"
   version="1.1"
   id="svg12"
   sodipodi:docname="EmailTemplates.svg"
   inkscape:version="0.92.1 r15371">
  <metadata
     id="metadata16">
    <rdf:RDF>
      <cc:Work
         rdf:about="">
        <dc:format>image/svg+xml</dc:format>
        <dc:type
           rdf:resource="http://purl.org/dc/dcmitype/StillImage" />
        <dc:title>acc_create_email_templates_small</dc:title>
      </cc:Work>
    </rdf:RDF>
  </metadata>
  <sodipodi:namedview
     pagecolor="#ffffff"
     bordercolor="#666666"
     borderopacity="1"
     objecttolerance="10"
     gridtolerance="10"
     guidetolerance="10"
     inkscape:pageopacity="0"
     inkscape:pageshadow="2"
     inkscape:window-width="1920"
     inkscape:window-height="1015"
     id="namedview14"
     showgrid="false"
     inkscape:zoom="11.8"
     inkscape:cx="10"
     inkscape:cy="10"
     inkscape:window-x="0"
     inkscape:window-y="0"
     inkscape:window-maximized="1"
     inkscape:current-layer="svg12" />
  <!-- Generator: Sketch 39.1 (31720) - http://www.bohemiancoding.com/sketch -->
  <title
     id="title2">acc_create_email_templates_small</title>
  <desc
     id="desc4">Created with Sketch.</desc>
  <defs
     id="defs6" />
  <g
     id="g10"
     stroke="none"
     stroke-width="1"
     fill="none"
     fill-rule="evenodd"
     style="fill:#000000">
    <g
       id="acc_create_email_templates_small"
       fill="#FFFFFF"
       style="fill:#000000">
      <path
         d="M10.893858,9.02608217 C10.3135125,8.15525428 9.96480975,7.16798569 9.96480975,6.06489574 L1.25529217,6.06489574 L1.25529217,7.22620604 L8.22315398,11.1164407 L10.893858,9.02608217 Z M8.22315398,12.3359714 L1.25529217,8.38751634 L1.25529217,16.5166885 L15.1910158,16.5166885 L15.1910158,11.2904824 C13.8553541,11.2904824 12.6361331,10.7680476 11.7070849,9.95513041 L8.22315398,12.3359714 Z M15.1910158,2 C12.9263059,2 11.1261201,3.80018581 11.1261201,6.06489574 C11.1261201,8.32929599 12.9263059,10.1291721 15.1910158,10.1291721 C17.455416,10.1291721 19.2552922,8.32929599 19.2552922,6.06489574 C19.2552922,3.80018581 17.455416,2 15.1910158,2 L15.1910158,2 Z M17.5136364,6.64524121 L15.7713613,6.64524121 L15.7713613,8.38751634 L14.610051,8.38751634 L14.610051,6.64524121 L12.8683952,6.64524121 L12.8683952,5.48393091 L14.610051,5.48393091 L14.610051,3.74227514 L15.7713613,3.74227514 L15.7713613,5.48393091 L17.5136364,5.48393091 L17.5136364,6.64524121 Z"
         id="Page-1"
         style="fill:#000000" />
    </g>
  </g>
</svg>
