<?xml version="1.0" encoding="UTF-8" standalone="no"?>
<svg
   xmlns:dc="http://purl.org/dc/elements/1.1/"
   xmlns:cc="http://creativecommons.org/ns#"
   xmlns:rdf="http://www.w3.org/1999/02/22-rdf-syntax-ns#"
   xmlns:svg="http://www.w3.org/2000/svg"
   xmlns="http://www.w3.org/2000/svg"
   xmlns:sodipodi="http://sodipodi.sourceforge.net/DTD/sodipodi-0.dtd"
   xmlns:inkscape="http://www.inkscape.org/namespaces/inkscape"
   width="30px"
   height="30px"
   viewBox="0 0 30 30"
   version="1.1"
   id="svg13"
   sodipodi:docname="jjwg_Address_Cache.svg"
   inkscape:version="0.92.1 r15371">
  <metadata
     id="metadata17">
    <rdf:RDF>
      <cc:Work
         rdf:about="">
        <dc:format>image/svg+xml</dc:format>
        <dc:type
           rdf:resource="http://purl.org/dc/dcmitype/StillImage" />
        <dc:title>acc_markers_maps</dc:title>
      </cc:Work>
    </rdf:RDF>
  </metadata>
  <sodipodi:namedview
     pagecolor="#ffffff"
     bordercolor="#666666"
     borderopacity="1"
     objecttolerance="10"
     gridtolerance="10"
     guidetolerance="10"
     inkscape:pageopacity="0"
     inkscape:pageshadow="2"
     inkscape:window-width="1920"
     inkscape:window-height="1015"
     id="namedview15"
     showgrid="false"
     inkscape:zoom="7.8666667"
     inkscape:cx="-7.5"
     inkscape:cy="15"
     inkscape:window-x="0"
     inkscape:window-y="0"
     inkscape:window-maximized="1"
     inkscape:current-layer="svg13" />
  <!-- Generator: Sketch 3.8.3 (29802) - http://www.bohemiancoding.com/sketch -->
  <title
     id="title2">acc_markers_maps</title>
  <desc
     id="desc4">Created with Sketch.</desc>
  <defs
     id="defs6" />
  <g
     id="Page-1"
     stroke="none"
     stroke-width="1"
     fill="none"
     fill-rule="evenodd"
     style="fill:#ffffff">
    <g
       id="acc_markers_maps"
       fill="#778591"
       style="fill:#ffffff">
      <g
         id="Page-1-Copy-2"
         transform="translate(6.000000, 0.000000)"
         style="fill:#ffffff">
        <path
           d="M16.642623,15.4052459 C17.995082,13.8009836 18.8114754,11.7304918 18.8114754,9.46721311 C18.8114754,4.37459016 14.6827869,0.245901639 9.59016393,0.245901639 C4.49754098,0.245901639 0.368852459,4.37459016 0.368852459,9.46721311 C0.368852459,11.7304918 1.1852459,13.8009836 2.53770492,15.4052459 L9.59016393,24.2213115 L16.642623,15.4052459 Z M9.59016393,6.57786885 C11.1865574,6.57786885 12.4795082,7.87081967 12.4795082,9.46721311 C12.4795082,11.0636066 11.1865574,12.3565574 9.59016393,12.3565574 C7.99377049,12.3565574 6.70081967,11.0636066 6.70081967,9.46721311 C6.70081967,7.87081967 7.99377049,6.57786885 9.59016393,6.57786885 L9.59016393,6.57786885 Z"
           id="Fill-1"
           style="fill:#ffffff" />
        <path
           d="M15.1229508,27.9098361 C15.1229508,28.9278689 12.6467213,29.7540984 9.59016393,29.7540984 C6.53360656,29.7540984 4.05737705,28.9278689 4.05737705,27.9098361 C4.05737705,26.8918033 6.53360656,26.0655738 9.59016393,26.0655738 C12.6467213,26.0655738 15.1229508,26.8918033 15.1229508,27.9098361"
           id="Fill-2"
           style="fill:#ffffff" />
      </g>
    </g>
  </g>
</svg>
